<svg fill="none" height="41" viewBox="0 0 48 41" width="48" xmlns="http://www.w3.org/2000/svg"><path d="m42.5886 8.52554h-5.0696v-5.06962c0-.89637-.3561-1.75602-.9899-2.38984-.6338-.633829-1.4935-.9899081-2.3898-.9899081h-20.2785c-.8964 0-1.756.3560791-2.3899.9899081-.6338.63382-.9899 1.49347-.9899 2.38984v5.06962h-5.06958c-1.34455 0-2.63403.53412-3.58477 1.48486-.950734.9507-1.484853 2.2402-1.484853 3.5848v23.6582c0 .8963.356079 1.756.989903 2.3898.63383.6339 1.49348.9899 2.38984.9899h40.55696c.8964 0 1.756-.356 2.3898-.9899.6339-.6338.9899-1.4935.9899-2.3898v-23.6582c0-1.3446-.5341-2.6341-1.4848-3.5848-.9507-.95074-2.2402-1.48486-3.5848-1.48486zm-28.7278-5.06962h20.2785v5.06962h-20.2785zm30.4177 33.79748h-40.55696v-15.2089h13.51896v8.4494h13.519v-8.4494h13.519zm-23.6582-15.2089h6.7595v5.0696h-6.7595zm-16.89876-3.3797v-5.0696c0-.4482.17804-.878.49496-1.195.31691-.3169.74673-.4949 1.19492-.4949h37.17718c.4482 0 .878.178 1.195.4949.3169.317.4949.7468.4949 1.195v5.0696z" fill="#0d5c63"/></svg>